<svg width="50" height="50" viewBox="0 0 50 50" fill="none" xmlns="http://www.w3.org/2000/svg">
<path d="M47.2396 0H2.76042C1.23698 0 0 1.23698 0 2.76042V47.2396C0 48.763 1.23698 50 2.76042 50H25V30.2083H19.0234V22.9167H25V17.526C25 11.0677 29.4792 7.55208 35.2474 7.55208C38.0078 7.55208 40.9766 7.76042 41.6667 7.85156V14.5964H37.0703C33.9323 14.5964 33.3333 16.0807 33.3333 18.2682V22.9167H40.8073L39.8307 30.2083H33.3333V50H47.2396C48.763 50 50 48.763 50 47.2396V2.76042C50 1.23698 48.763 0 47.2396 0Z" fill="white"/>
</svg>
