<svg width="51" height="51" viewBox="0 0 51 51" fill="none" xmlns="http://www.w3.org/2000/svg">
<path d="M46.6265 0.625H4.89694C2.6177 0.625 0.625 2.26605 0.625 4.51924V46.34C0.625 48.6062 2.6177 50.6249 4.89694 50.6249H46.6135C48.9057 50.6249 50.6249 48.5932 50.6249 46.34V4.51924C50.6379 2.26605 48.9057 0.625 46.6265 0.625ZM16.1238 42.3025H8.96049V20.0311H16.1238V42.3025ZM12.7896 16.6448H12.7375C10.4453 16.6448 8.96049 14.9386 8.96049 12.8026C8.96049 10.6276 10.4843 8.96049 12.8287 8.96049C15.173 8.96049 16.6057 10.6146 16.6578 12.8026C16.6578 14.9386 15.173 16.6448 12.7896 16.6448ZM42.3025 42.3025H35.1391V30.1248C35.1391 27.2074 34.0972 25.2147 31.5054 25.2147C29.5257 25.2147 28.3535 26.5562 27.8326 27.8586C27.6372 28.3275 27.5851 28.9657 27.5851 29.6169V42.3025H20.4218V20.0311H27.5851V23.1308C28.627 21.6461 30.2551 19.5101 34.0451 19.5101C38.7469 19.5101 42.3025 22.6099 42.3025 29.2913V42.3025Z" fill="white"/>
</svg>
