<svg width="69" height="69" viewBox="0 0 69 69" fill="none" xmlns="http://www.w3.org/2000/svg">
<path d="M19.9669 51.5662L17.6945 54.2642L16.9849 53.6487L19.3516 51.0456C18.9734 50.7142 18.6895 50.3829 18.3581 50.0518L18.8788 49.5312C19.7782 50.3826 20.5824 51.0456 21.529 51.8501L21.0556 52.4179C20.7242 52.0865 20.3457 51.8501 19.9672 51.5665L19.9669 51.5662ZM15.4234 44.8456L11.7316 46.9753C11.8737 47.2117 12.0158 47.5431 12.1579 47.7798L15.8494 45.6024C15.6595 45.3185 15.5655 45.1289 15.4237 44.8453L15.4234 44.8456ZM17.7897 48.2529L15.8022 49.9566L16.8434 47.0221C16.6536 46.7857 16.5586 46.5965 16.3697 46.3597L12.7728 48.8207C12.9149 49.0565 13.1513 49.2936 13.2934 49.5303L15.4231 48.0159L14.4293 50.9975C14.6186 51.1868 14.7607 51.5181 15.0449 51.7071L18.3575 48.8676C18.1686 48.6783 17.9318 48.4891 17.7897 48.2526V48.2529ZM22.6174 53.5531C23.1852 53.8845 23.7536 54.2159 24.4157 54.4994L24.7942 53.8845C23.8951 53.4113 23.0906 52.8907 22.3332 52.4176L19.9194 55.967C20.8188 56.5825 21.6711 57.1031 22.6174 57.6238L22.9959 57.0082L21.0553 55.872L21.718 54.9257L22.9959 55.6831L23.3745 55.0675C22.9283 54.823 22.4865 54.5705 22.0493 54.3102L22.6171 53.5531H22.6174ZM34.6388 40.2541C31.2784 40.2541 28.5335 37.5089 28.5335 34.1484C28.5335 30.788 31.2784 28.0428 34.6388 28.0428C37.9996 28.0428 40.7444 30.788 40.7444 34.1484C40.7444 37.5089 37.9989 40.2541 34.6388 40.2541ZM34.7337 38.2659C36.958 38.2659 38.8038 36.4202 38.8038 34.1959C38.8038 32.3499 37.5258 30.7405 35.7272 30.2674C35.7272 30.0781 35.6323 29.2262 35.6323 29.2262H33.5973C33.5973 29.2262 33.5501 30.1256 33.5501 30.3149C32.7281 30.5647 32.0083 31.0722 31.4969 31.7625C30.9856 32.4529 30.7098 33.2894 30.7103 34.1484C30.7103 36.4202 32.5092 38.2659 34.7334 38.2659H34.7337ZM25.7411 11.0988V10.9099C25.7411 9.82117 26.5456 8.87456 27.6815 8.8274C28.8645 8.73246 29.9061 9.58475 30.0004 10.7678V10.957C30.0004 12.0457 29.149 12.9923 28.0129 13.087C26.9242 13.1819 25.8829 12.2825 25.7411 11.0994V11.0988ZM26.5456 11.052C26.5931 11.8093 27.2561 12.3771 28.0132 12.2825C28.7231 12.1875 29.2911 11.6198 29.2911 10.9099C29.3383 10.8627 29.2911 10.8149 29.2911 10.7678C29.2437 10.0104 28.5813 9.49012 27.8242 9.53728C27.1137 9.58475 26.5459 10.1528 26.5931 10.9099V11.052H26.5459H26.5456ZM35.4439 12.0932H34.592L35.6332 9.86864L36.5795 7.8811L37.5264 7.97542L38.047 9.86864L38.7569 12.4243C38.4255 12.3771 38.1888 12.3293 37.8575 12.2825L37.621 11.478C37.0262 11.3836 36.4248 11.3362 35.8225 11.3362L35.4439 12.0932ZM36.1538 10.6263C36.627 10.6263 37.053 10.7206 37.4789 10.7678L37.2425 9.86864L36.9586 8.96919L36.5329 9.86894L36.1544 10.6263H36.1538ZM31.8939 8.73276L32.2728 12.2347L33.1722 12.1398L32.7937 8.6853L34.1666 8.59036L34.1194 7.83302C32.557 7.92795 31.942 7.97481 30.3801 8.21153L30.4751 8.96889L31.8945 8.73307L31.8939 8.73276ZM32.036 56.0616L31.7053 58.6647L30.4742 55.8252C30.19 55.7777 30.0007 55.6831 29.7168 55.6359L28.7224 59.8493C29.0063 59.9442 29.338 59.9442 29.6216 60.0382L30.1422 57.4351L31.4202 60.3224C31.7041 60.3696 32.0351 60.4645 32.3665 60.4645L32.8399 56.1097C32.6029 56.0622 32.3193 56.1097 32.0351 56.0622L32.036 56.0616ZM56.8355 46.975L53.7118 45.2713L53.3333 45.9809L57.0726 48.0634L58.5395 45.4603L57.8768 45.1289L56.8355 46.9747V46.975ZM52.1025 47.6377L56.3624 49.0574C56.2675 49.1995 56.1725 49.2939 56.0782 49.436C55.9833 49.5309 55.9361 49.6252 55.8415 49.7673L55.0841 49.4831L53.9014 50.95L54.3271 51.6131C54.1381 51.8023 53.9489 52.0388 53.7596 52.2286L52.056 49.4357L51.4404 48.395L52.1028 47.6374L52.1025 47.6377ZM52.576 48.584L53.0966 49.3888L53.57 50.1933L54.1856 49.3891L54.3274 49.1998L52.5757 48.5843L52.576 48.584ZM48.0803 54.3108C48.2675 54.643 48.3652 55.0182 48.3639 55.3995C48.3639 55.6843 48.3167 56.0151 48.1746 56.2518C47.9853 56.6303 47.7014 57.0091 47.2752 57.2456C46.2817 57.8133 44.9569 57.4823 44.3885 56.441C44.3885 56.3942 44.3413 56.2993 44.2935 56.2521C44.1517 55.9679 44.1043 55.6843 44.1043 55.4001C44.1517 54.6431 44.4828 53.9332 45.193 53.5547C46.1877 52.9391 47.5128 53.2708 48.0809 54.3117L48.0803 54.3108ZM47.6071 55.353C47.6071 55.1165 47.56 54.8798 47.4179 54.6431C47.0393 53.9807 46.2348 53.7917 45.5721 54.1225C45.099 54.3592 44.8622 54.8323 44.8622 55.3058C44.8622 55.5422 44.9097 55.7789 45.0515 55.9682C45.099 56.0157 45.1464 56.1103 45.1936 56.1575C45.6193 56.6309 46.3298 56.773 46.8972 56.4417C47.0393 56.3467 47.1814 56.2527 47.2757 56.1578C47.5131 56.016 47.6074 55.6846 47.6074 55.3533L47.6071 55.353ZM49.6899 50.2892L51.4885 52.1824L48.5069 51.2829C48.2704 51.4722 48.0812 51.5194 47.8913 51.7086L50.4944 55.2115C50.7311 55.0222 50.9679 54.8329 51.1571 54.6437L49.5953 52.5612L52.6241 53.4604C52.8139 53.2711 53.1447 53.0818 53.3345 52.8448L50.3526 49.6742C50.0687 49.8629 49.8792 50.0999 49.6899 50.2889V50.2892ZM68.7638 34.1968C68.7638 34.5754 68.7638 35.0017 68.7167 35.333V35.4279L68.6217 35.4748C67.1548 36.3268 65.3088 36.8468 63.4156 36.8949C63.3684 37.1313 63.1791 38.8353 63.1317 39.0717C64.8828 39.5923 66.5861 40.5386 67.7701 41.7697L67.8175 41.8646V41.9596C67.7226 42.622 67.4862 43.5214 67.2498 44.0889L67.2026 44.1838H67.1077C65.4515 44.657 63.5111 44.657 61.7597 44.1838C61.6647 44.4203 61.0023 45.9824 60.9552 46.2192C62.517 47.2132 63.8896 48.5864 64.6944 50.0056L64.7413 50.1005L64.6938 50.1955C64.4574 50.7629 63.9839 51.6152 63.5576 52.1358L63.5108 52.2308H63.4159C61.7591 52.2308 59.8665 51.7573 58.2568 50.8582C58.1151 51.0474 57.0263 52.515 56.8848 52.7039C58.1625 54.029 59.1563 55.7327 59.5348 57.3895L59.582 57.4844L59.5345 57.5316C59.1557 58.0516 58.4933 58.7143 57.9726 59.0934L57.9252 59.1403L57.7831 59.0931C56.1741 58.6668 54.4704 57.6728 53.145 56.3951C52.9557 56.5369 51.5831 57.5781 51.3939 57.7671C52.2452 59.3289 52.7658 61.175 52.7658 62.8315V63.0682L52.6709 63.1154C52.1509 63.4939 51.3461 64.0148 50.7308 64.2515L50.6837 64.2984L50.5887 64.2512C49.1218 63.3993 47.7492 62.0267 46.8026 60.4651C46.5662 60.5601 44.9094 61.2696 44.7201 61.3643C44.9566 62.2637 45.0987 63.1628 45.0987 64.0623C45.0987 64.9617 44.9569 65.908 44.7204 66.7125V66.8075L44.6255 66.8546C44.0577 67.0911 43.1586 67.3278 42.4959 67.4224H42.4009L42.3541 67.3753C41.123 66.1919 40.1295 64.488 39.656 62.7369C39.4196 62.7369 37.7157 62.9733 37.4792 63.0207C37.4315 64.8665 36.9586 66.76 36.0589 68.2269L36.0117 68.3219H35.9168C35.349 68.4168 34.3549 68.4168 33.7394 68.3219H33.645L33.5979 68.2269C32.7459 66.76 32.2253 64.914 32.1778 63.0207C31.9411 62.9736 30.1422 62.7369 29.8586 62.7369C29.3852 64.488 28.3917 66.1913 27.208 67.3753L27.1609 67.4224H27.066C26.4035 67.3275 25.5041 67.0439 24.9363 66.8069L24.8892 66.7597L24.842 66.6648C24.6053 65.8603 24.4632 64.9137 24.4632 63.9667C24.4632 63.0679 24.605 62.1691 24.8417 61.2693C24.605 61.1744 23.0431 60.5594 22.8541 60.4173C21.9072 62.0267 20.4869 63.399 19.0199 64.2515L18.925 64.2984L18.8301 64.2512C18.2151 63.967 17.4103 63.5414 16.89 63.1151L16.8428 63.0682V62.8783C16.8428 61.2225 17.3635 59.3764 18.2154 57.7671C18.0262 57.6253 16.5586 56.5366 16.3697 56.3473C15.0449 57.6253 13.3409 58.5719 11.7316 58.9979L11.6367 59.0447L11.5417 58.9976C11.0211 58.571 10.4062 57.9563 9.97986 57.4351L9.9327 57.3402L9.98017 57.2452C10.4065 55.5891 11.4002 53.9326 12.6782 52.6071C12.5361 52.4179 11.4471 50.9981 11.2581 50.7614C9.64911 51.6608 7.7559 52.1815 6.09942 52.134H6.00447L5.95731 52.0865C5.57849 51.5659 5.10503 50.7614 4.82114 50.1461L4.77367 50.0512L4.82114 49.9563C5.67251 48.4894 7.04572 47.1174 8.60727 46.1705C8.51233 45.9337 7.84992 44.3247 7.70782 44.1351C5.90954 44.5608 3.96855 44.608 2.35983 44.1351L2.2649 44.0874L2.21774 43.9924C1.98101 43.425 1.74397 42.5255 1.64965 41.8628V41.7679L1.69682 41.6729C2.87954 40.4427 4.5838 39.4964 6.33491 38.9755C6.33491 38.7391 6.05072 36.9402 6.00356 36.6566C4.15781 36.6091 2.26429 36.136 0.797368 35.284L0.702433 35.2369V35.1419C0.655271 34.858 0.655273 34.4323 0.655273 34.0535C0.655273 33.675 0.655271 33.2962 0.702433 32.9648V32.8699L0.797368 32.823C2.26429 31.971 4.1575 31.4504 6.00356 31.4504C6.05041 31.2137 6.28745 29.4629 6.28745 29.2259C4.53633 28.7052 2.83299 27.7589 1.64935 26.5278L1.60188 26.481V26.386C1.69682 25.7233 1.93324 24.8242 2.16966 24.2564L2.21713 24.1615L2.31145 24.114C3.92077 23.6408 5.86084 23.6408 7.65973 24.114C7.75467 23.8776 8.41708 22.3154 8.51171 22.0787C6.90239 21.1318 5.5301 19.7592 4.72528 18.2922L4.67812 18.1973L4.72528 18.1024C5.00948 17.5349 5.43517 16.7304 5.81399 16.2098L5.86115 16.1148H5.95609C7.65943 16.0677 9.50548 16.588 11.1148 17.4874C11.2566 17.2982 12.3453 15.8306 12.5346 15.6417C11.2569 14.3169 10.2631 12.6129 9.88462 10.9561V10.8618L9.93178 10.7669C10.3584 10.2462 11.0208 9.58383 11.5414 9.205L11.6363 9.15783H11.7313C13.3875 9.58352 15.0914 10.5776 16.3694 11.8559C16.5593 11.7138 17.8841 10.6725 18.0733 10.5304C17.1739 8.96858 16.6533 7.12283 16.6533 5.46634V5.22961L16.7482 5.18245C17.2214 4.80393 18.0733 4.33047 18.6414 4.09405L18.6883 4.04658L18.7832 4.09405C20.2501 4.89856 21.6227 6.31863 22.5693 7.88048C22.8061 7.78555 24.51 7.07597 24.7467 6.98103C24.51 6.08128 24.3679 5.18214 24.4151 4.283C24.4151 3.3367 24.51 2.43726 24.7936 1.63244V1.53751H24.8885C25.456 1.3017 26.3555 1.06466 27.0179 0.970034H27.1128L27.2077 1.0175C28.4382 2.20053 29.3845 3.90448 29.9058 5.65591C30.1416 5.60844 31.9408 5.41919 32.1772 5.37172C32.2244 3.52597 32.6978 1.63245 33.5973 0.212998L33.6444 0.118063L33.7394 0.0712023C34.4021 -0.0237341 35.3487 -0.0237341 35.9639 0.0712023L36.0589 0.118362L36.106 0.213297C37.0055 1.68022 37.4786 3.52627 37.4786 5.37202C37.7625 5.41949 39.5136 5.65621 39.7504 5.70338C40.271 3.90479 41.2173 2.24831 42.4484 1.06497L42.4956 1.01812L42.5905 1.06528C43.2529 1.16021 44.1524 1.39695 44.7201 1.63337L44.8151 1.68084L44.8619 1.77577C45.1133 2.63663 45.2406 3.52892 45.2401 4.42572C45.2401 5.32516 45.0983 6.27146 44.8616 7.12375C45.098 7.21807 46.802 7.92795 47.0384 8.02289C47.9847 6.46103 49.3573 5.08813 50.8245 4.23615L50.9195 4.18899L51.0144 4.23646C51.5822 4.47319 52.4345 4.94634 52.9079 5.37263L53.0029 5.41979V5.65622C53.0029 7.31301 52.4823 9.15845 51.6303 10.7203C51.8202 10.8624 53.2396 11.9508 53.4289 12.1401C54.7543 10.8624 56.4582 9.86833 58.1144 9.44203L58.2094 9.39518L58.3043 9.49012C58.8249 9.86864 59.4873 10.5785 59.8661 11.052L59.9133 11.1469L59.8661 11.2412C59.4405 12.898 58.4461 14.6017 57.1681 15.8796C57.3102 16.0689 58.3515 17.4887 58.5407 17.6782C60.1975 16.7788 62.0433 16.3056 63.7469 16.3056H63.8419L63.889 16.4006C64.3147 16.9212 64.7881 17.7254 64.9774 18.2932L65.0246 18.3881L64.9774 18.483C64.1254 19.95 62.7528 21.3226 61.191 22.2692C61.2859 22.5059 61.9483 24.1149 62.043 24.3045C63.7941 23.8788 65.7822 23.8313 67.3912 24.3045H67.4862L67.533 24.3994C67.7695 24.9669 68.0062 25.8663 68.1005 26.529V26.624L68.0533 26.6711C66.87 27.9016 65.1661 28.8486 63.4146 29.3692C63.4618 29.605 63.6511 31.3567 63.6988 31.5931C65.5923 31.6406 67.4381 32.1138 68.905 33.0132L68.9999 33.0607V33.1556C68.7151 33.392 68.7629 33.7712 68.7629 34.1968H68.7638ZM17.553 14.3184L20.3454 17.4421C20.7239 17.8684 21.1499 17.8209 21.7174 17.3478C25.2674 14.5554 29.8108 12.9461 34.6379 12.9461C39.4649 12.9461 44.0096 14.6029 47.6065 17.3478C48.1743 17.7735 48.6003 17.8209 48.9785 17.4427L51.7715 14.319C52.1022 13.9873 52.1022 13.5142 51.4873 12.993C46.8017 9.34863 40.9799 7.0772 34.6376 7.0772C28.2952 7.0772 22.4275 9.34894 17.8363 12.9933C17.2217 13.5139 17.2217 13.9873 17.553 14.3187V14.3184ZM17.7423 27.4291C17.4109 27.2392 17.1267 27.0028 16.8428 27.0974C16.6058 27.1449 16.464 27.3813 16.3691 27.7602C15.044 32.2565 15.044 36.0901 16.3691 40.5389C16.464 40.8231 16.5583 41.1067 16.8425 41.2016C17.0783 41.2965 17.3632 41.2016 17.7888 40.9174L26.4495 35.0017C26.7811 34.7649 26.9701 34.481 26.9701 34.1497C26.9701 33.8183 26.7811 33.5347 26.4495 33.2983L17.7417 27.4291H17.7423ZM19.6355 22.2698C19.6827 22.6005 20.014 22.7426 20.3454 22.8847L29.8108 27.4753C30.1894 27.6652 30.5207 27.6652 30.8049 27.5231C31.0888 27.3339 31.2306 27.05 31.2781 26.6237L32.0354 16.1638C32.0829 15.6432 31.9883 15.3593 31.8462 15.2175C31.6569 15.0277 31.373 15.0754 31.0888 15.1226C26.5453 16.2113 23.2795 18.1042 20.014 21.5121C19.6827 21.7963 19.5877 22.0802 19.6355 22.2695V22.2698ZM19.777 46.2179C19.777 46.4069 19.9191 46.6436 20.1083 46.88C23.3742 50.2879 26.6397 52.1812 31.1834 53.2696C31.4673 53.3645 31.7512 53.4117 31.9408 53.2224C32.1297 53.0803 32.2244 52.7489 32.1766 52.2761L31.4195 41.7688C31.3724 41.39 31.2303 41.0583 30.9464 40.9165C30.6622 40.7744 30.3308 40.7744 29.9523 40.9165L20.534 45.5071C20.2027 45.6492 19.8713 45.8385 19.7764 46.1227V46.2176L19.777 46.2179ZM34.6379 40.9165C38.3772 40.9165 41.4059 37.8877 41.4059 34.1484C41.4059 30.4092 38.3772 27.3804 34.6379 27.3804C30.8986 27.3804 27.8698 30.4092 27.8698 34.1484C27.8698 37.8877 30.8986 40.9165 34.6379 40.9165ZM37.5252 53.08C37.6673 53.2221 37.9509 53.2221 38.3297 53.1272C42.826 52.0384 46.139 50.1455 49.3576 46.7379C49.5469 46.5009 49.7833 46.2642 49.6884 46.0274C49.6415 45.7916 49.4048 45.5543 48.9788 45.365L39.5133 40.7744C39.1348 40.5851 38.8035 40.5851 38.5193 40.7744C38.2354 40.9637 38.0936 41.2476 38.0461 41.6735L37.2888 52.1334C37.3356 52.4641 37.2888 52.8433 37.5252 53.0797V53.08ZM51.6291 40.8687C51.9129 41.058 52.2446 41.2944 52.5285 41.1529C52.7178 41.1054 52.907 40.8687 53.0016 40.4902C54.3268 35.9936 54.3268 32.1603 53.0016 27.7112C52.9067 27.4273 52.8124 27.1434 52.576 27.0484C52.3395 26.9535 52.0553 27.0484 51.6291 27.3323L42.9678 33.2484C42.6364 33.4851 42.4472 33.769 42.4472 34.1004C42.4472 34.432 42.6364 34.7159 42.9678 34.9523L51.6291 40.8684V40.8687ZM49.6884 22.0793C49.6884 21.8903 49.5934 21.6536 49.3576 21.4169C46.139 18.0093 42.8254 16.1158 38.2822 15.0274C38.0458 14.9802 37.7144 14.8856 37.5249 15.0748C37.3356 15.2166 37.2407 15.548 37.2885 16.0211L38.0458 26.5284C38.093 26.907 38.2351 27.2383 38.519 27.3804C38.8038 27.5225 39.182 27.5225 39.5133 27.3332L48.9788 22.7898C49.263 22.6477 49.6415 22.5059 49.6887 22.1742C49.6887 22.1742 49.7365 22.1271 49.6887 22.0793H49.6884ZM9.31714 40.8216L13.3403 39.6388C13.7188 39.5439 14.0502 39.1182 14.0027 38.6448C12.5358 31.1668 14.3812 25.0615 18.7832 20.1867C19.2089 19.8553 19.2564 19.2404 18.8301 18.7666L15.8956 15.8322C15.6114 15.5014 15.0908 15.5014 14.6645 15.9743C9.08011 21.8903 6.24028 30.9301 8.32276 40.2069C8.46516 40.6326 8.79622 40.9643 9.31683 40.8225L9.31714 40.8216ZM59.344 42.9996L55.3215 41.627C55.1322 41.5321 54.5641 41.5321 54.2802 42.2425C51.0144 50.0518 43.4422 55.3998 34.6385 55.3998C25.8355 55.3998 18.1208 49.91 14.9971 42.1007C14.7604 41.533 14.1923 41.533 14.003 41.5801L9.98017 42.9521C9.55387 43.0945 9.27028 43.4727 9.50671 44.0411C13.4349 54.075 23.2321 61.1741 34.6382 61.1741C46.0447 61.1741 55.8892 54.0275 59.8178 43.9937C60.0542 43.5205 59.8178 43.1417 59.3443 42.9999L59.344 42.9996ZM54.7062 15.9749C54.3277 15.5017 53.665 15.5492 53.4757 15.8799L50.5413 18.8147C50.1156 19.2404 50.1627 19.9034 50.5884 20.2345C54.9898 25.1093 56.8359 31.1675 55.3683 38.6925C55.3212 39.166 55.6522 39.592 56.0307 39.6866L60.0542 40.87C60.5748 41.0121 60.9536 40.6807 61.048 40.2544C63.1782 30.9313 60.3387 21.8441 54.7062 15.9752V15.9749ZM45.2879 14.839L46.2348 13.0407L48.743 11.9046C48.4591 11.7156 48.1752 11.5738 47.9385 11.4317L46.2348 12.2362L45.9035 10.3436C45.525 10.1537 45.3357 10.1066 44.9572 9.9648L45.4778 12.7097L44.5309 14.4614L45.2882 14.8396L45.2879 14.839ZM40.6023 55.4004C39.3718 55.6852 38.3778 55.921 37.1479 56.1109L37.2422 56.8205C37.7157 56.7255 38.1417 56.6784 38.6148 56.6312L39.2304 60.0857L40.1295 59.8964L39.3722 56.442C39.8453 56.347 40.2716 56.2052 40.7441 56.1103L40.6023 55.3998V55.4004ZM28.3445 56.016V56.2524C28.2971 56.8202 27.8711 57.3886 27.2558 57.4835L27.3973 59.471C27.0719 59.4136 26.7543 59.3182 26.451 59.1868L26.4035 57.2933L25.5522 56.9151L24.8892 58.5719C24.605 58.477 24.3214 58.382 24.0846 58.2405L24.936 56.2052L25.0309 55.9685L25.7414 54.3117L27.6815 55.0694C28.1072 55.2592 28.2971 55.6378 28.3442 56.0163L28.3445 56.016ZM27.5394 56.0163C27.4922 55.8742 27.4445 55.7796 27.303 55.7321L26.2143 55.3536L25.9776 56.0163L25.8826 56.2527L26.8767 56.6312C27.1606 56.7733 27.3973 56.4891 27.4922 56.2527C27.5391 56.2058 27.5863 56.1109 27.5391 56.0163H27.5394ZM40.6017 12.8999C40.271 12.8049 39.9862 12.7578 39.608 12.6631L40.3178 10.2965L40.8385 8.59251C41.5958 8.78177 42.2582 9.01819 42.9681 9.25523C43.3466 9.39733 43.5837 9.82301 43.6308 10.2965C43.6783 10.9592 43.3469 11.6691 42.6845 11.8112L42.9209 13.7044C42.6367 13.5623 42.4003 13.4679 42.069 13.3259L41.8325 11.6691L41.028 11.4333L40.6023 12.8992L40.6017 12.8999ZM41.1701 10.6275L42.1164 10.9592C42.4006 11.0541 42.732 10.6278 42.732 10.2493C42.732 10.06 42.6848 9.91794 42.4478 9.87078C42.0693 9.72837 41.8322 9.68091 41.454 9.58659L41.2648 10.2493L41.1698 10.6275H41.1701ZM36.5317 58.0507L37.478 60.3224C37.1941 60.3224 36.9105 60.3696 36.6267 60.4173L36.3425 59.7068L34.4967 59.7546L34.3075 60.512C34.0233 60.4648 33.7397 60.4648 33.4555 60.4648L34.26 58.0975L34.8281 56.2993L34.8752 56.2521L35.8222 56.2049L35.8693 56.2999L36.532 58.0504L36.5317 58.0507ZM35.9639 58.8552L35.6326 58.0507L35.3012 57.1512L35.017 58.0504L34.7331 58.9017L35.9642 58.8549L35.9639 58.8552ZM41.6433 55.021L43.0636 59.0916L43.915 58.8077L42.543 54.7846C42.1642 54.8795 41.9749 54.9273 41.6436 55.0216L41.6433 55.021ZM21.0081 12.2831L20.7714 11.8574C21.3869 11.4786 22.0493 11.0997 22.7117 10.7684C23.4691 10.3427 24.5575 11.3839 24.4635 12.2831C24.4635 12.4249 24.4157 12.6144 24.3211 12.7562L25.8829 13.8924C25.599 14.0342 25.3623 14.1288 25.0316 14.3181L23.6577 13.3243L22.9004 13.75L23.7052 15.0754C23.3738 15.2647 23.1846 15.4068 22.8532 15.5961L21.0081 12.2831ZM21.9544 12.0464L22.0493 12.2356L22.475 12.993L23.3748 12.5198C23.4697 12.4726 23.5169 12.378 23.5169 12.2359C23.5169 11.8102 23.2327 11.2896 22.807 11.526C22.5222 11.7153 22.3329 11.8568 21.9544 12.0467" fill="#F7A800"/>
</svg>
