<svg width="594" height="224" viewBox="0 0 594 224" fill="none" xmlns="http://www.w3.org/2000/svg">
<g clip-path="url(#clip0)">
<path d="M172.627 137.469L173.091 145.351C173.091 146.587 172.318 147.669 171.081 147.824C167.681 148.441 163.046 149.214 160.264 149.214C145.737 149.214 141.254 143.651 141.254 125.414V97.596H135.692C135.366 97.6002 135.043 97.539 134.741 97.4162C134.439 97.2934 134.164 97.1114 133.934 96.881C133.704 96.6505 133.522 96.3762 133.399 96.0743C133.276 95.7724 133.215 95.4489 133.219 95.123V86.931C133.219 85.541 134.301 84.613 135.692 84.613H141.255V74.877C141.255 73.795 142.027 72.867 143.109 72.559L152.691 70.241C153.464 70.087 154.081 70.241 154.701 70.705C155.318 71.168 155.627 71.787 155.627 72.559V84.769H170.309C171.699 84.769 172.627 85.849 172.627 87.086V95.276C172.627 96.666 171.545 97.749 170.309 97.749H155.627V123.559C155.627 132.522 155.937 135.613 162.273 135.613C164.591 135.613 168.146 135.458 170.155 135.303C171.391 135.149 172.473 136.075 172.627 137.467V137.469ZM127.037 115.83C127.037 138.857 118.227 149.058 98.7539 149.058C79.1269 149.058 70.3169 138.858 70.3169 115.83C70.3169 93.112 79.1269 83.066 98.7539 83.066C118.072 83.066 127.037 93.421 127.037 115.83ZM112.353 115.83C112.353 101.767 108.489 96.203 98.7529 96.203C88.5529 96.203 84.9989 101.303 84.9989 115.83C84.9989 128.967 87.1629 136.075 98.7529 136.075C110.19 136.075 112.353 128.657 112.353 115.83ZM342.471 85.54C342.008 84.92 341.391 84.612 340.617 84.612H331.191C330.109 84.612 329.181 85.384 328.873 86.312L316.353 133.602H315.427L302.907 86.312C302.599 85.229 301.672 84.612 300.59 84.612H291.318C290.548 84.612 289.928 84.92 289.465 85.538C289.002 86.156 288.847 86.928 289.001 87.548L302.756 140.556C303.374 143.183 305.846 147.666 310.638 147.666H313.265C313.111 148.592 312.801 149.519 312.493 150.292L312.339 150.756C311.567 153.229 310.486 156.938 303.685 156.938L291.785 156.166C291.168 156.166 290.395 156.32 289.932 156.784C289.684 157.025 289.488 157.313 289.356 157.632C289.223 157.95 289.156 158.293 289.159 158.638L289.469 164.974C289.469 166.056 290.239 166.984 291.322 167.138C294.877 168.065 301.522 168.992 307.086 169.301H307.858C316.821 169.301 323.003 163.428 326.093 151.991C329.905 137.528 333.666 123.052 337.375 108.563C338.92 102.845 340.155 97.899 341.085 94.5L342.938 87.544C343.091 86.927 342.938 86.154 342.473 85.536L342.471 85.54ZM61.5089 144.423C61.8189 145.196 61.8189 145.969 61.3549 146.741C60.8909 147.359 60.1189 147.823 59.3449 147.823H48.2189C47.2929 147.823 46.3659 147.205 46.0559 146.433L31.6829 114.131C24.5729 114.131 18.3929 113.668 14.9929 113.513V145.505C14.9929 146.895 13.9099 147.978 12.6729 147.978H2.47294C2.14708 147.982 1.82368 147.921 1.52181 147.798C1.21995 147.675 0.94573 147.493 0.715336 147.263C0.484941 147.032 0.303032 146.758 0.180338 146.456C0.0576428 146.154 -0.00335408 145.831 0.000944822 145.505V64.369C0.000944822 63.133 0.927944 62.051 2.16494 62.051C14.9909 60.659 25.3449 60.505 29.0529 60.505H31.0629C55.6359 60.505 60.8899 75.032 60.8899 87.241C60.8899 97.441 56.0999 104.705 46.0539 109.804L61.5089 144.422V144.423ZM31.0629 74.413H25.8089C19.9359 74.413 16.5359 74.877 14.8359 75.186V100.069C17.6159 100.224 23.0259 100.533 30.2899 100.533C39.7169 100.378 45.5899 95.433 45.5899 87.551C45.5899 81.061 41.8799 74.415 31.0619 74.415L31.0629 74.413ZM231.508 104.395V146.277C231.511 146.622 231.444 146.964 231.311 147.283C231.179 147.601 230.983 147.89 230.736 148.131C230.272 148.595 229.5 148.749 228.881 148.749C223.936 148.131 221.618 146.586 219.299 144.731C219.144 144.731 208.326 149.211 198.744 149.211C187.154 149.211 180.354 141.794 180.354 128.967C180.354 116.447 186.534 110.885 201.524 109.649L217.134 108.413V104.549C217.134 99.759 214.197 96.976 209.252 96.976C202.452 96.976 192.562 97.75 187.307 98.213C186.69 98.213 185.917 98.059 185.454 97.595C184.99 97.131 184.681 96.512 184.681 95.895L184.371 87.857C184.371 86.621 185.144 85.539 186.381 85.384C191.017 84.61 202.763 82.91 210.026 82.91C224.553 83.067 231.508 89.868 231.508 104.395ZM203.071 120.315C197.353 120.778 194.726 123.405 194.726 128.351C194.726 131.441 195.499 136.541 201.216 136.541C207.863 136.541 216.981 134.068 216.981 134.068V119.541L203.071 120.314V120.315ZM278.335 84.151C271.998 84.461 265.662 88.169 261.798 90.951V87.088C261.798 85.698 260.716 84.77 259.325 84.77H249.743C248.353 84.77 247.27 85.852 247.27 87.088V145.505C247.266 145.831 247.327 146.154 247.45 146.456C247.572 146.758 247.755 147.032 247.985 147.263C248.215 147.493 248.49 147.675 248.792 147.798C249.094 147.921 249.417 147.982 249.743 147.978H259.325C259.651 147.982 259.974 147.921 260.276 147.798C260.578 147.675 260.852 147.493 261.083 147.263C261.313 147.032 261.495 146.758 261.618 146.456C261.741 146.154 261.802 145.831 261.798 145.505V105.015C263.962 103.159 270.761 98.215 278.643 97.441C279.879 97.286 280.807 96.359 280.807 95.123V86.623C280.807 86.005 280.497 85.387 280.034 84.923C279.569 84.305 278.951 83.996 278.334 84.151" fill="white"/>
<path d="M433.037 168.378L425.617 177.188L423.3 175.178L431.028 166.678C429.793 165.596 428.866 164.514 427.784 163.433L429.484 161.733C432.421 164.513 435.047 166.678 438.138 169.305L436.592 171.159C435.51 170.077 434.274 169.305 433.038 168.379L433.037 168.378ZM418.201 146.433L406.146 153.387C406.61 154.159 407.074 155.241 407.538 156.014L419.592 148.904C418.972 147.977 418.665 147.358 418.202 146.432L418.201 146.433ZM425.928 157.559L419.438 163.122L422.838 153.54C422.218 152.768 421.908 152.15 421.291 151.377L409.546 159.413C410.01 160.183 410.782 160.957 411.246 161.73L418.2 156.785L414.955 166.521C415.573 167.139 416.037 168.221 416.965 168.838L427.782 159.566C427.165 158.948 426.392 158.33 425.928 157.558V157.559ZM441.692 174.866C443.546 175.948 445.402 177.03 447.564 177.956L448.8 175.948C445.864 174.403 443.237 172.703 440.764 171.158L432.882 182.748C435.819 184.758 438.602 186.458 441.692 188.158L442.928 186.148L436.591 182.438L438.755 179.348L442.928 181.821L444.164 179.811C442.707 179.013 441.264 178.188 439.837 177.338L441.691 174.866H441.692ZM480.946 131.44C469.973 131.44 461.01 122.476 461.01 111.503C461.01 100.53 469.973 91.566 480.946 91.566C491.92 91.566 500.883 100.53 500.883 111.503C500.883 122.476 491.918 131.44 480.946 131.44ZM481.256 124.948C488.519 124.948 494.546 118.921 494.546 111.658C494.546 105.63 490.373 100.375 484.5 98.83C484.5 98.212 484.19 95.43 484.19 95.43H477.545C477.545 95.43 477.391 98.367 477.391 98.985C474.707 99.8007 472.356 101.458 470.687 103.712C469.017 105.966 468.116 108.698 468.118 111.503C468.118 118.921 473.992 124.948 481.255 124.948H481.256ZM451.892 36.238V35.621C451.892 32.066 454.519 28.975 458.228 28.821C462.091 28.511 465.492 31.294 465.8 35.157V35.775C465.8 39.33 463.02 42.421 459.31 42.73C455.755 43.04 452.355 40.103 451.892 36.24V36.238ZM454.519 36.085C454.674 38.558 456.839 40.412 459.311 40.103C461.629 39.793 463.484 37.939 463.484 35.621C463.638 35.467 463.484 35.311 463.484 35.157C463.329 32.684 461.166 30.985 458.694 31.139C456.374 31.294 454.52 33.149 454.674 35.621V36.085H454.52H454.519ZM483.575 39.485H480.793L484.193 32.221L487.283 25.731L490.375 26.039L492.075 32.221L494.393 40.566C493.311 40.412 492.538 40.256 491.456 40.103L490.684 37.476C488.742 37.1679 486.778 37.0131 484.811 37.013L483.575 39.485V39.485ZM485.893 34.695C487.438 34.695 488.829 35.003 490.22 35.157L489.448 32.221L488.521 29.284L487.131 32.222L485.895 34.695H485.893ZM471.983 28.512L473.22 39.947L476.157 39.637L474.921 28.357L479.404 28.047L479.25 25.574C474.148 25.884 472.14 26.037 467.04 26.81L467.35 29.283L471.985 28.513L471.983 28.512ZM472.447 183.057L471.367 191.557L467.347 182.285C466.419 182.13 465.801 181.821 464.874 181.667L461.627 195.425C462.554 195.735 463.637 195.735 464.563 196.042L466.263 187.542L470.436 196.97C471.363 197.124 472.444 197.434 473.526 197.434L475.072 183.214C474.298 183.059 473.372 183.214 472.444 183.059L472.447 183.057ZM553.426 153.386L543.226 147.823L541.99 150.14L554.2 156.94L558.99 148.44L556.826 147.358L553.426 153.385V153.386ZM537.971 155.55L551.881 160.186C551.571 160.65 551.261 160.958 550.953 161.422C550.643 161.732 550.489 162.04 550.18 162.504L547.707 161.576L543.845 166.366L545.235 168.531C544.618 169.149 544 169.921 543.382 170.541L537.819 161.421L535.809 158.023L537.972 155.549L537.971 155.55ZM539.517 158.64L541.217 161.268L542.763 163.895L544.773 161.269L545.236 160.651L539.516 158.641L539.517 158.64ZM524.837 177.34C525.448 178.425 525.767 179.65 525.763 180.895C525.763 181.825 525.609 182.905 525.145 183.678C524.527 184.914 523.6 186.151 522.208 186.923C518.964 188.777 514.638 187.696 512.782 184.296C512.782 184.143 512.628 183.833 512.472 183.679C512.009 182.751 511.854 181.825 511.854 180.897C512.009 178.425 513.09 176.107 515.409 174.871C518.657 172.861 522.984 173.944 524.839 177.343L524.837 177.34ZM523.292 180.743C523.292 179.971 523.138 179.198 522.674 178.425C521.438 176.262 518.811 175.645 516.647 176.725C515.102 177.498 514.329 179.043 514.329 180.589C514.329 181.361 514.484 182.134 514.947 182.752C515.102 182.907 515.257 183.216 515.411 183.37C516.801 184.916 519.121 185.38 520.974 184.298C521.438 183.988 521.902 183.681 522.21 183.371C522.985 182.908 523.293 181.826 523.293 180.744L523.292 180.743ZM530.093 164.208L535.966 170.39L526.23 167.453C525.458 168.071 524.84 168.225 524.22 168.843L532.72 180.281C533.493 179.663 534.266 179.045 534.884 178.427L529.784 171.627L539.674 174.563C540.294 173.945 541.374 173.327 541.994 172.553L532.257 162.2C531.33 162.816 530.711 163.59 530.093 164.207V164.208ZM592.376 111.661C592.376 112.897 592.376 114.289 592.222 115.371V115.681L591.912 115.834C587.122 118.616 581.094 120.314 574.912 120.471C574.758 121.243 574.14 126.807 573.985 127.579C579.703 129.279 585.265 132.369 589.131 136.389L589.286 136.699V137.009C588.976 139.172 588.204 142.109 587.432 143.962L587.278 144.272H586.968C581.56 145.817 575.224 145.817 569.505 144.272C569.195 145.044 567.032 150.145 566.878 150.918C571.978 154.164 576.46 158.648 579.088 163.282L579.241 163.592L579.086 163.902C578.314 165.755 576.768 168.538 575.376 170.238L575.223 170.548H574.913C569.503 170.548 563.323 169.002 558.067 166.066C557.604 166.684 554.049 171.476 553.587 172.093C557.759 176.42 561.004 181.983 562.24 187.393L562.394 187.703L562.239 187.857C561.002 189.555 558.839 191.719 557.139 192.957L556.984 193.11L556.52 192.956C551.266 191.564 545.703 188.318 541.375 184.146C540.757 184.609 536.275 188.009 535.657 188.626C538.437 193.726 540.137 199.754 540.137 205.163V205.936L539.827 206.09C538.129 207.326 535.501 209.027 533.492 209.8L533.338 209.953L533.028 209.799C528.238 207.017 523.756 202.535 520.665 197.436C519.893 197.746 514.483 200.063 513.865 200.372C514.637 203.309 515.101 206.245 515.101 209.182C515.101 212.119 514.638 215.209 513.866 217.836V218.146L513.556 218.3C511.702 219.072 508.766 219.845 506.602 220.154H506.292L506.139 220C502.119 216.136 498.875 210.572 497.329 204.854C496.557 204.854 490.993 205.626 490.221 205.781C490.065 211.808 488.521 217.991 485.583 222.781L485.429 223.091H485.119C483.265 223.401 480.019 223.401 478.009 223.091H477.701L477.547 222.781C474.765 217.991 473.065 211.963 472.91 205.781C472.137 205.627 466.263 204.854 465.337 204.854C463.791 210.572 460.547 216.134 456.682 220L456.528 220.154H456.218C454.055 219.844 451.118 218.918 449.264 218.144L449.11 217.99L448.956 217.68C448.183 215.053 447.719 211.962 447.719 208.87C447.719 205.935 448.182 203 448.955 200.062C448.182 199.752 443.082 197.744 442.465 197.28C439.373 202.535 434.735 207.016 429.945 209.8L429.635 209.953L429.325 209.799C427.317 208.871 424.689 207.481 422.99 206.089L422.836 205.936V205.316C422.836 199.909 424.536 193.881 427.318 188.626C426.7 188.163 421.908 184.608 421.291 183.99C416.965 188.163 411.401 191.254 406.146 192.645L405.836 192.798L405.526 192.644C403.826 191.251 401.818 189.244 400.426 187.542L400.272 187.232L400.427 186.922C401.819 181.514 405.064 176.105 409.237 171.777C408.773 171.159 405.217 166.523 404.6 165.75C399.346 168.687 393.164 170.387 387.755 170.232H387.445L387.291 170.077C386.054 168.377 384.508 165.75 383.581 163.741L383.426 163.431L383.581 163.121C386.361 158.331 390.845 153.851 395.944 150.759C395.634 149.986 393.471 144.732 393.007 144.113C387.135 145.503 380.797 145.657 375.544 144.113L375.234 143.957L375.08 143.647C374.307 141.794 373.533 138.857 373.225 136.693V136.383L373.379 136.073C377.241 132.056 382.806 128.966 388.524 127.265C388.524 126.493 387.596 120.619 387.442 119.693C381.415 119.538 375.232 117.993 370.442 115.211L370.132 115.057V114.747C369.978 113.82 369.978 112.43 369.978 111.193C369.978 109.957 369.978 108.72 370.132 107.638V107.328L370.442 107.175C375.232 104.393 381.414 102.693 387.442 102.693C387.595 101.92 388.369 96.203 388.369 95.429C382.651 93.729 377.089 90.639 373.224 86.619L373.069 86.466V86.156C373.379 83.992 374.151 81.056 374.923 79.202L375.078 78.892L375.386 78.737C380.641 77.192 386.976 77.192 392.85 78.737C393.16 77.965 395.323 72.864 395.632 72.091C390.377 68.999 385.896 64.517 383.268 59.727L383.114 59.417L383.268 59.107C384.196 57.254 385.586 54.627 386.823 52.927L386.977 52.617H387.287C392.849 52.463 398.877 54.162 404.132 57.099C404.595 56.481 408.15 51.689 408.768 51.072C404.596 46.746 401.351 41.182 400.115 35.772V35.464L400.269 35.154C401.662 33.454 403.825 31.291 405.525 30.054L405.835 29.9H406.145C411.553 31.29 417.117 34.536 421.29 38.71C421.91 38.246 426.236 34.846 426.854 34.382C423.917 29.282 422.217 23.255 422.217 17.846V17.073L422.527 16.919C424.072 15.683 426.854 14.137 428.709 13.365L428.862 13.21L429.172 13.365C433.962 15.992 438.444 20.629 441.535 25.729C442.308 25.419 447.872 23.102 448.645 22.792C447.872 19.854 447.408 16.918 447.562 13.982C447.562 10.892 447.872 7.95498 448.798 5.32698V5.01698H449.108C450.961 4.24698 453.898 3.47299 456.061 3.16399H456.371L456.681 3.31899C460.699 7.18199 463.789 12.746 465.491 18.465C466.261 18.31 472.136 17.692 472.908 17.537C473.062 11.51 474.608 5.327 477.545 0.692003L477.699 0.382006L478.009 0.22899C480.173 -0.0810095 483.264 -0.0810095 485.273 0.22899L485.583 0.382982L485.737 0.69298C488.674 5.48298 490.219 11.511 490.219 17.538C491.146 17.693 496.864 18.466 497.637 18.62C499.337 12.747 502.427 7.33799 506.447 3.47399L506.601 3.321L506.911 3.47499C509.074 3.78499 512.011 4.558 513.865 5.33L514.175 5.485L514.328 5.795C515.149 8.60599 515.565 11.5196 515.563 14.448C515.563 17.385 515.1 20.475 514.327 23.258C515.099 23.566 520.663 25.884 521.435 26.194C524.525 21.094 529.007 16.611 533.798 13.829L534.108 13.675L534.418 13.83C536.272 14.603 539.055 16.148 540.601 17.54L540.911 17.694V18.466C540.911 23.876 539.211 29.902 536.429 35.002C537.049 35.466 541.684 39.02 542.302 39.638C546.63 35.466 552.194 32.22 557.602 30.828L557.912 30.675L558.222 30.985C559.922 32.221 562.085 34.539 563.322 36.085L563.476 36.395L563.322 36.703C561.932 42.113 558.685 47.676 554.512 51.849C554.976 52.467 558.376 57.103 558.994 57.722C564.404 54.785 570.431 53.24 575.994 53.24H576.304L576.458 53.55C577.848 55.25 579.394 57.876 580.012 59.73L580.166 60.04L580.012 60.35C577.23 65.14 572.748 69.622 567.648 72.713C567.958 73.486 570.121 78.74 570.43 79.359C576.148 77.969 582.64 77.814 587.894 79.359H588.204L588.357 79.669C589.129 81.522 589.902 84.459 590.21 86.623V86.933L590.056 87.087C586.192 91.105 580.628 94.197 574.909 95.897C575.063 96.667 575.681 102.387 575.837 103.159C582.02 103.314 588.047 104.859 592.837 107.796L593.147 107.951V108.261C592.217 109.033 592.373 110.271 592.373 111.661H592.376ZM425.155 46.751L434.273 56.951C435.509 58.343 436.9 58.188 438.753 56.643C450.345 47.525 465.181 42.27 480.943 42.27C496.705 42.27 511.545 47.68 523.29 56.643C525.144 58.033 526.535 58.188 527.77 56.953L536.89 46.753C537.97 45.67 537.97 44.125 535.962 42.423C520.662 30.523 501.652 23.106 480.942 23.106C460.232 23.106 441.072 30.524 426.08 42.424C424.073 44.124 424.073 45.67 425.155 46.752V46.751ZM425.773 89.562C424.691 88.942 423.763 88.17 422.836 88.479C422.062 88.634 421.599 89.406 421.289 90.643C416.962 105.325 416.962 117.843 421.289 132.37C421.599 133.298 421.907 134.224 422.835 134.534C423.605 134.844 424.535 134.534 425.925 133.606L454.205 114.289C455.288 113.516 455.905 112.589 455.905 111.507C455.905 110.425 455.288 109.499 454.205 108.727L425.771 89.562H425.773ZM431.955 72.715C432.109 73.795 433.191 74.259 434.273 74.723L465.181 89.713C466.417 90.333 467.499 90.333 468.427 89.869C469.354 89.251 469.817 88.324 469.972 86.932L472.445 52.777C472.6 51.077 472.291 50.15 471.827 49.687C471.209 49.067 470.282 49.223 469.354 49.377C454.518 52.932 443.854 59.113 433.191 70.241C432.109 71.169 431.799 72.096 431.955 72.714V72.715ZM432.417 150.914C432.417 151.531 432.881 152.304 433.499 153.076C444.163 164.204 454.826 170.386 469.663 173.94C470.59 174.25 471.517 174.404 472.136 173.786C472.753 173.322 473.062 172.24 472.906 170.696L470.434 136.386C470.28 135.149 469.816 134.066 468.889 133.603C467.961 133.139 466.879 133.139 465.643 133.603L434.889 148.593C433.807 149.057 432.725 149.675 432.415 150.603V150.913L432.417 150.914ZM480.943 133.603C493.153 133.603 503.043 123.713 503.043 111.503C503.043 99.293 493.153 89.403 480.943 89.403C468.733 89.403 458.843 99.293 458.843 111.503C458.843 123.713 468.733 133.603 480.943 133.603ZM490.371 173.321C490.835 173.785 491.761 173.785 492.998 173.475C507.68 169.92 518.498 163.739 529.008 152.612C529.626 151.838 530.398 151.065 530.088 150.292C529.935 149.522 529.162 148.747 527.771 148.129L496.863 133.139C495.627 132.521 494.545 132.521 493.617 133.139C492.69 133.757 492.227 134.684 492.072 136.075L489.599 170.23C489.752 171.31 489.599 172.548 490.371 173.32V173.321ZM536.425 133.447C537.352 134.065 538.435 134.837 539.362 134.375C539.98 134.22 540.598 133.447 540.907 132.211C545.234 117.528 545.234 105.011 540.907 90.483C540.597 89.556 540.289 88.629 539.517 88.319C538.745 88.009 537.817 88.319 536.425 89.246L508.143 108.564C507.061 109.337 506.443 110.264 506.443 111.346C506.443 112.429 507.061 113.356 508.143 114.128L536.425 133.446V133.447ZM530.088 72.093C530.088 71.476 529.778 70.703 529.008 69.93C518.498 58.803 507.678 52.62 492.843 49.066C492.071 48.912 490.989 48.603 490.37 49.221C489.752 49.684 489.442 50.766 489.598 52.311L492.071 86.621C492.225 87.857 492.689 88.939 493.616 89.403C494.546 89.867 495.781 89.867 496.863 89.249L527.771 74.413C528.699 73.949 529.935 73.486 530.089 72.403C530.089 72.403 530.245 72.249 530.089 72.093H530.088ZM398.262 133.293L411.399 129.431C412.635 129.121 413.717 127.731 413.562 126.185C408.772 101.767 414.798 81.831 429.172 65.913C430.562 64.831 430.717 62.823 429.325 61.276L419.743 51.694C418.815 50.614 417.115 50.614 415.723 52.158C397.488 71.476 388.215 100.994 395.015 131.286C395.48 132.676 396.561 133.759 398.261 133.296L398.262 133.293ZM561.617 140.405L548.482 135.923C547.864 135.613 546.009 135.613 545.082 137.933C534.418 163.433 509.692 180.896 480.945 180.896C452.2 180.896 427.009 162.97 416.809 137.47C416.036 135.616 414.181 135.616 413.563 135.77L400.427 140.25C399.035 140.715 398.109 141.95 398.881 143.806C411.708 176.57 443.699 199.751 480.944 199.751C518.19 199.751 550.336 176.415 563.164 143.651C563.936 142.106 563.164 140.869 561.618 140.406L561.617 140.405ZM546.473 52.16C545.237 50.615 543.073 50.77 542.455 51.85L532.873 61.433C531.483 62.823 531.637 64.988 533.027 66.069C547.399 81.987 553.427 101.769 548.635 126.341C548.481 127.887 549.562 129.278 550.798 129.587L563.936 133.451C565.636 133.915 566.873 132.833 567.181 131.441C574.137 100.998 564.865 71.325 546.473 52.161V52.16ZM515.719 48.451L518.811 42.579L527.001 38.869C526.074 38.252 525.147 37.789 524.374 37.325L518.811 39.952L517.729 33.772C516.493 33.152 515.875 32.998 514.639 32.535L516.339 41.498L513.247 47.218L515.72 48.453L515.719 48.451ZM500.419 180.898C496.401 181.828 493.155 182.598 489.139 183.218L489.447 185.535C490.993 185.225 492.384 185.071 493.929 184.917L495.939 196.197L498.875 195.579L496.402 184.299C497.947 183.989 499.339 183.526 500.882 183.216L500.419 180.896V180.898ZM460.393 182.908V183.68C460.238 185.534 458.847 187.39 456.838 187.7L457.3 194.19C456.237 194.002 455.2 193.691 454.21 193.262L454.055 187.079L451.275 185.844L449.11 191.254C448.182 190.944 447.256 190.634 446.483 190.172L449.263 183.526L449.573 182.753L451.893 177.343L458.228 179.817C459.618 180.437 460.238 181.673 460.392 182.909L460.393 182.908ZM457.764 182.909C457.61 182.445 457.454 182.136 456.992 181.981L453.437 180.745L452.664 182.909L452.354 183.681L455.6 184.917C456.527 185.381 457.3 184.453 457.61 183.681C457.763 183.528 457.917 183.218 457.763 182.909H457.764ZM500.417 42.119C499.337 41.809 498.407 41.655 497.172 41.346L499.49 33.618L501.19 28.054C503.663 28.672 505.826 29.444 508.144 30.218C509.38 30.682 510.154 32.072 510.308 33.618C510.463 35.782 509.381 38.1 507.218 38.564L507.99 44.746C507.062 44.282 506.29 43.974 505.208 43.51L504.436 38.1L501.809 37.33L500.419 42.117L500.417 42.119ZM502.273 34.699L505.363 35.782C506.291 36.092 507.373 34.7 507.373 33.464C507.373 32.846 507.219 32.382 506.445 32.228C505.209 31.763 504.435 31.608 503.2 31.3L502.582 33.464L502.272 34.699H502.273ZM487.127 189.552L490.217 196.97C489.29 196.97 488.364 197.124 487.437 197.28L486.509 194.96L480.482 195.116L479.864 197.589C478.936 197.435 478.01 197.435 477.082 197.435L479.709 189.705L481.564 183.833L481.718 183.679L484.81 183.525L484.964 183.835L487.128 189.551L487.127 189.552ZM485.273 192.179L484.191 189.552L483.109 186.615L482.181 189.551L481.254 192.331L485.274 192.178L485.273 192.179ZM503.818 179.659L508.456 192.951L511.236 192.024L506.756 178.887C505.519 179.197 504.901 179.353 503.819 179.661L503.818 179.659ZM436.437 40.105L435.664 38.715C437.674 37.478 439.837 36.241 442 35.159C444.473 33.769 448.027 37.169 447.72 40.105C447.72 40.568 447.564 41.187 447.255 41.65L452.355 45.36C451.428 45.823 450.655 46.132 449.575 46.75L445.089 43.505L442.616 44.895L445.244 49.223C444.162 49.841 443.544 50.305 442.462 50.923L436.437 40.105ZM439.527 39.332L439.837 39.95L441.227 42.423L444.165 40.878C444.475 40.724 444.629 40.415 444.629 39.951C444.629 38.561 443.701 36.861 442.311 37.633C441.381 38.251 440.763 38.713 439.527 39.333" fill="#F7A800"/>
</g>
<defs>
<clipPath id="clip0">
<rect width="593.145" height="223.318" fill="#000"/>
</clipPath>
</defs>
</svg>
